<svg xmlns="http://www.w3.org/2000/svg" width="487" height="440" viewBox="0 0 487 440">
  <path d="M480.725757,370.297148 L280.966256,22.2306006 C273.096257,8.51848235 258.740213,0 243.499579,0 C228.258945,0 213.902902,8.51848235 206.031951,22.2316 L6.27340098,370.297148 C-1.86007342,384.469968 -2.10072001,402.226467 5.64467609,416.637133 C13.3919745,431.047799 27.9886648,440 43.7400782,440 L443.25908,440 C459.010493,440 473.608135,431.047799 481.355433,416.636133 C489.100829,402.224468 488.860183,384.46797 480.725757,370.297148 Z M453.444626,400.557385 C451.310091,404.530464 447.287606,407 442.94713,407 L43.0521367,407 C38.7116611,407 34.689176,404.531465 32.5555928,400.558386 C30.4210576,396.584306 30.4877023,391.687278 32.7279171,387.780266 L232.676366,39.1302942 C234.845176,35.3494122 238.801016,33 243.000586,33 C247.199203,33 251.155043,35.3494122 253.323853,39.1302942 L453.270398,387.780266 C455.512517,391.688279 455.579161,396.584306 453.444626,400.557385 Z"/>
  <path d="M243.99576 126C229.956681 126 219 133.533272 219 146.888112 219 187.634655 223.792995 246.186913 223.792995 286.934563 223.794102 297.549125 233.040186 302 243.996867 302 252.214378 302 263.856406 297.549125 263.856406 286.934563 263.856406 246.18802 268.6494 187.635762 268.6494 146.888112 268.6494 133.534379 257.3506 126 243.99576 126zM243.686109 314C227.295251 314 215 326.953893 215 342.5 215 357.675107 227.294047 371 243.686109 371 258.960312 371 272 357.675107 272 342.5 272 326.953893 258.959107 314 243.686109 314z"/>
</svg>
